<svg width="22" height="22" viewBox="0 0 22 22" fill="none" xmlns="http://www.w3.org/2000/svg">
<g clip-path="url(#clip0_38_88)">
<path d="M11 22C17.0751 22 22 17.0751 22 11C22 4.92487 17.0751 0 11 0C4.92487 0 0 4.92487 0 11C0 17.0751 4.92487 22 11 22Z" fill="#F44336"/>
<path d="M11 14.96C10.3805 15.6533 9.57868 16.3437 8.64802 16.4566C8.60257 16.4768 8.55292 16.4857 8.50328 16.4826C7.11092 16.6505 5.9646 15.5332 5.9646 14.1668C5.9646 13.0249 7.43078 10.4963 8.98236 7.2325C9.39197 6.37711 9.8146 5.5 11 5.5C12.1854 5.5 12.5921 6.33803 13.0914 7.37C16.0397 13.2463 16.0397 13.5705 16.0397 14.1582C16.0412 14.4974 15.9697 14.8329 15.8301 15.1421C15.6905 15.4512 15.4861 15.7268 15.2307 15.95C14.2783 16.775 12.6847 16.8401 11.0043 14.96H11ZM15.3421 14.1582C15.3421 13.2564 13.9642 10.8292 12.4647 7.6725C12.0638 6.86921 11.8424 6.1875 11 6.1875C10.2763 6.1875 10.0216 6.64632 9.59749 7.52342C8.09078 10.7004 6.65789 13.2145 6.65789 14.1582C6.65789 15.0526 7.32657 15.9211 8.56697 15.7763C9.32973 15.6837 10.0346 15.0193 10.5441 14.4404C5.47828 7.88961 16.5507 7.86355 11.4559 14.4404C13.5271 16.7895 15.3421 15.6417 15.3421 14.1582ZM9.8421 11.4212C9.8421 12.0508 10.2372 12.9076 10.9884 13.9005C11.7396 12.9076 12.1347 12.0508 12.1347 11.4212C12.1347 9.78276 9.8421 9.78276 9.8421 11.4212Z" fill="white"/>
</g>
<defs>
<clipPath id="clip0_38_88">
<rect width="22" height="22" fill="white"/>
</clipPath>
</defs>
</svg>
