<svg width="24" height="24" viewBox="0 0 24 24" fill="none" xmlns="http://www.w3.org/2000/svg">
<g clip-path="url(#clip0_61_61)">
<path d="M12 24C18.6274 24 24 18.6274 24 12C24 5.37258 18.6274 0 12 0C5.37258 0 0 5.37258 0 12C0 18.6274 5.37258 24 12 24Z" fill="#F44336"/>
<path d="M12 16.32C11.3242 17.0763 10.4495 17.8295 9.4342 17.9526C9.38462 17.9746 9.33046 17.9844 9.27631 17.9811C7.75736 18.1642 6.50684 16.9453 6.50684 15.4547C6.50684 14.2089 8.10631 11.4505 9.79894 7.89C10.2458 6.95684 10.7068 6 12 6C13.2932 6 13.7368 6.91421 14.2816 8.04C17.4979 14.4505 17.4979 14.8042 17.4979 15.4453C17.4995 15.8153 17.4215 16.1814 17.2692 16.5186C17.1169 16.8559 16.8939 17.1565 16.6153 17.4C15.5763 18.3 13.8379 18.3711 12.0047 16.32H12ZM16.7368 15.4453C16.7368 14.4616 15.2337 11.8137 13.5979 8.37C13.1605 7.49368 12.9189 6.75 12 6.75C11.2105 6.75 10.9326 7.25053 10.47 8.20737C8.82631 11.6732 7.26315 14.4158 7.26315 15.4453C7.26315 16.4211 7.99263 17.3684 9.34578 17.2105C10.1779 17.1095 10.9468 16.3847 11.5026 15.7532C5.97631 8.60684 18.0553 8.57842 12.4974 15.7532C14.7568 18.3158 16.7368 17.0637 16.7368 15.4453ZM10.7368 12.4595C10.7368 13.1463 11.1679 14.0811 11.9874 15.1642C12.8068 14.0811 13.2379 13.1463 13.2379 12.4595C13.2379 10.6721 10.7368 10.6721 10.7368 12.4595Z" fill="white"/>
</g>
<defs>
<clipPath id="clip0_61_61">
<rect width="24" height="24" fill="white"/>
</clipPath>
</defs>
</svg>
