<svg width="20" height="20" viewBox="0 0 20 20" fill="none" xmlns="http://www.w3.org/2000/svg">
<path d="M14.9998 12.9167C14.8902 12.9173 14.7814 12.8963 14.6799 12.8548C14.5784 12.8133 14.486 12.7522 14.4082 12.675L10.5915 8.85001C10.514 8.7719 10.4219 8.70991 10.3203 8.6676C10.2188 8.62529 10.1098 8.60351 9.99983 8.60351C9.88982 8.60351 9.7809 8.62529 9.67935 8.6676C9.5778 8.70991 9.48563 8.7719 9.40816 8.85001L5.5915 12.675C5.43458 12.8319 5.22175 12.9201 4.99983 12.9201C4.77791 12.9201 4.56508 12.8319 4.40816 12.675C4.25124 12.5181 4.16309 12.3053 4.16309 12.0833C4.16309 11.9735 4.18473 11.8646 4.22678 11.7631C4.26883 11.6616 4.33046 11.5694 4.40816 11.4917L8.23316 7.67501C8.70811 7.21871 9.3412 6.96387 9.99983 6.96387C10.6585 6.96387 11.2915 7.21871 11.7665 7.67501L15.5915 11.4917C15.6696 11.5691 15.7316 11.6613 15.7739 11.7629C15.8162 11.8644 15.838 11.9733 15.838 12.0833C15.838 12.1933 15.8162 12.3023 15.7739 12.4038C15.7316 12.5054 15.6696 12.5975 15.5915 12.675C15.5136 12.7522 15.4213 12.8133 15.3198 12.8548C15.2182 12.8963 15.1095 12.9173 14.9998 12.9167Z" fill="black"/>
</svg>
