<svg width="20" height="20" viewBox="0 0 20 20" fill="none" xmlns="http://www.w3.org/2000/svg">
<path d="M14.9998 7.08333C14.8902 7.0827 14.7814 7.10372 14.6799 7.14519C14.5784 7.18666 14.486 7.24777 14.4082 7.325L10.5915 11.15C10.514 11.2281 10.4219 11.2901 10.3203 11.3324C10.2188 11.3747 10.1098 11.3965 9.99983 11.3965C9.88982 11.3965 9.7809 11.3747 9.67935 11.3324C9.5778 11.2901 9.48563 11.2281 9.40816 11.15L5.5915 7.325C5.43458 7.16808 5.22175 7.07992 4.99983 7.07992C4.77791 7.07992 4.56508 7.16808 4.40816 7.325C4.25124 7.48192 4.16309 7.69475 4.16309 7.91667C4.16309 8.02655 4.18473 8.13535 4.22678 8.23687C4.26883 8.33839 4.33046 8.43063 4.40816 8.50833L8.23316 12.325C8.70811 12.7813 9.3412 13.0361 9.99983 13.0361C10.6585 13.0361 11.2915 12.7813 11.7665 12.325L15.5915 8.50833C15.6696 8.43086 15.7316 8.33869 15.7739 8.23715C15.8162 8.1356 15.838 8.02667 15.838 7.91667C15.838 7.80666 15.8162 7.69773 15.7739 7.59619C15.7316 7.49464 15.6696 7.40247 15.5915 7.325C15.5136 7.24777 15.4213 7.18666 15.3198 7.14519C15.2182 7.10372 15.1095 7.0827 14.9998 7.08333Z" fill="black"/>
</svg>
